<mxfile host="Electron" agent="Mozilla/5.0 (Macintosh; Intel Mac OS X 10_15_7) AppleWebKit/537.36 (KHTML, like Gecko) draw.io/25.0.2 Chrome/128.0.6613.186 Electron/32.2.5 Safari/537.36" version="25.0.2">
  <diagram name="ページ1" id="BQqNxLTdwkTHUb18bJQZ">
    <mxGraphModel dx="1026" dy="772" grid="1" gridSize="10" guides="1" tooltips="1" connect="1" arrows="1" fold="1" page="1" pageScale="1" pageWidth="827" pageHeight="1169" math="0" shadow="0">
      <root>
        <mxCell id="0" />
        <mxCell id="1" parent="0" />
        <mxCell id="pTCcpfSf7AeQRIHkig0U-7" style="edgeStyle=orthogonalEdgeStyle;rounded=0;orthogonalLoop=1;jettySize=auto;html=1;exitX=1;exitY=0.5;exitDx=0;exitDy=0;exitPerimeter=0;endArrow=none;endFill=0;strokeColor=default;" parent="1" source="pTCcpfSf7AeQRIHkig0U-4" edge="1">
          <mxGeometry relative="1" as="geometry">
            <mxPoint x="475.51" y="80" as="targetPoint" />
          </mxGeometry>
        </mxCell>
        <mxCell id="pTCcpfSf7AeQRIHkig0U-4" value="" style="verticalLabelPosition=bottom;shadow=0;dashed=0;align=center;html=1;verticalAlign=top;shape=mxgraph.electrical.logic_gates.logic_gate;operation=and;negating=1;negSize=0.15;" parent="1" vertex="1">
          <mxGeometry x="350.51" y="50" width="100" height="60" as="geometry" />
        </mxCell>
        <mxCell id="pTCcpfSf7AeQRIHkig0U-6" style="edgeStyle=orthogonalEdgeStyle;rounded=0;orthogonalLoop=1;jettySize=auto;html=1;exitX=0;exitY=0.25;exitDx=0;exitDy=0;exitPerimeter=0;entryX=0;entryY=0.75;entryDx=0;entryDy=0;entryPerimeter=0;startArrow=none;startFill=0;endArrow=none;endFill=0;" parent="1" source="pTCcpfSf7AeQRIHkig0U-4" target="pTCcpfSf7AeQRIHkig0U-4" edge="1">
          <mxGeometry relative="1" as="geometry">
            <Array as="points">
              <mxPoint x="350.51" y="80" />
              <mxPoint x="350.51" y="80" />
            </Array>
          </mxGeometry>
        </mxCell>
        <mxCell id="pTCcpfSf7AeQRIHkig0U-8" value="" style="endArrow=oval;html=1;rounded=0;endFill=1;" parent="1" edge="1">
          <mxGeometry width="50" height="50" relative="1" as="geometry">
            <mxPoint x="310.51" y="80" as="sourcePoint" />
            <mxPoint x="350.51" y="80" as="targetPoint" />
          </mxGeometry>
        </mxCell>
        <mxCell id="pTCcpfSf7AeQRIHkig0U-9" style="edgeStyle=orthogonalEdgeStyle;rounded=0;orthogonalLoop=1;jettySize=auto;html=1;exitX=1;exitY=0.5;exitDx=0;exitDy=0;exitPerimeter=0;endArrow=none;endFill=0;strokeColor=default;" parent="1" source="pTCcpfSf7AeQRIHkig0U-10" edge="1">
          <mxGeometry relative="1" as="geometry">
            <mxPoint x="540" y="200" as="targetPoint" />
          </mxGeometry>
        </mxCell>
        <mxCell id="pTCcpfSf7AeQRIHkig0U-10" value="" style="verticalLabelPosition=bottom;shadow=0;dashed=0;align=center;html=1;verticalAlign=top;shape=mxgraph.electrical.logic_gates.logic_gate;operation=and;negating=1;negSize=0.15;" parent="1" vertex="1">
          <mxGeometry x="410" y="170" width="100" height="60" as="geometry" />
        </mxCell>
        <mxCell id="pTCcpfSf7AeQRIHkig0U-11" style="rounded=0;orthogonalLoop=1;jettySize=auto;html=1;exitX=0;exitY=0.25;exitDx=0;exitDy=0;exitPerimeter=0;entryX=0;entryY=0.75;entryDx=0;entryDy=0;entryPerimeter=0;startArrow=none;startFill=0;endArrow=none;endFill=0;" parent="1" source="pTCcpfSf7AeQRIHkig0U-10" target="pTCcpfSf7AeQRIHkig0U-10" edge="1">
          <mxGeometry relative="1" as="geometry" />
        </mxCell>
        <mxCell id="pTCcpfSf7AeQRIHkig0U-12" value="" style="endArrow=oval;html=1;rounded=0;endFill=1;" parent="1" edge="1">
          <mxGeometry width="50" height="50" relative="1" as="geometry">
            <mxPoint x="380" y="200" as="sourcePoint" />
            <mxPoint x="410" y="200" as="targetPoint" />
          </mxGeometry>
        </mxCell>
        <mxCell id="pTCcpfSf7AeQRIHkig0U-14" style="edgeStyle=orthogonalEdgeStyle;rounded=0;orthogonalLoop=1;jettySize=auto;html=1;exitX=0;exitY=0.25;exitDx=0;exitDy=0;exitPerimeter=0;endArrow=none;endFill=0;" parent="1" source="pTCcpfSf7AeQRIHkig0U-13" edge="1">
          <mxGeometry relative="1" as="geometry">
            <mxPoint x="260" y="185.2702702702702" as="targetPoint" />
          </mxGeometry>
        </mxCell>
        <mxCell id="pTCcpfSf7AeQRIHkig0U-15" style="edgeStyle=orthogonalEdgeStyle;rounded=0;orthogonalLoop=1;jettySize=auto;html=1;exitX=0;exitY=0.75;exitDx=0;exitDy=0;exitPerimeter=0;endArrow=none;endFill=0;" parent="1" source="pTCcpfSf7AeQRIHkig0U-13" edge="1">
          <mxGeometry relative="1" as="geometry">
            <mxPoint x="260" y="215" as="targetPoint" />
          </mxGeometry>
        </mxCell>
        <mxCell id="pTCcpfSf7AeQRIHkig0U-13" value="" style="verticalLabelPosition=bottom;shadow=0;dashed=0;align=center;html=1;verticalAlign=top;shape=mxgraph.electrical.logic_gates.logic_gate;operation=and;negating=1;negSize=0.15;" parent="1" vertex="1">
          <mxGeometry x="290" y="170" width="100" height="60" as="geometry" />
        </mxCell>
        <mxCell id="pTCcpfSf7AeQRIHkig0U-17" value="" style="verticalLabelPosition=bottom;shadow=0;dashed=0;align=center;html=1;verticalAlign=top;shape=mxgraph.electrical.logic_gates.logic_gate;operation=and;negating=1;negSize=0.15;" parent="1" vertex="1">
          <mxGeometry x="295" y="290" width="100" height="60" as="geometry" />
        </mxCell>
        <mxCell id="pTCcpfSf7AeQRIHkig0U-18" value="" style="verticalLabelPosition=bottom;shadow=0;dashed=0;align=center;html=1;verticalAlign=top;shape=mxgraph.electrical.logic_gates.logic_gate;operation=and;negating=1;negSize=0.15;" parent="1" vertex="1">
          <mxGeometry x="295" y="370" width="100" height="60" as="geometry" />
        </mxCell>
        <mxCell id="pTCcpfSf7AeQRIHkig0U-29" style="edgeStyle=orthogonalEdgeStyle;rounded=0;orthogonalLoop=1;jettySize=auto;html=1;exitX=1;exitY=0.5;exitDx=0;exitDy=0;exitPerimeter=0;endArrow=none;endFill=0;" parent="1" source="pTCcpfSf7AeQRIHkig0U-19" edge="1">
          <mxGeometry relative="1" as="geometry">
            <mxPoint x="565" y="360" as="targetPoint" />
          </mxGeometry>
        </mxCell>
        <mxCell id="pTCcpfSf7AeQRIHkig0U-19" value="" style="verticalLabelPosition=bottom;shadow=0;dashed=0;align=center;html=1;verticalAlign=top;shape=mxgraph.electrical.logic_gates.logic_gate;operation=and;negating=1;negSize=0.15;" parent="1" vertex="1">
          <mxGeometry x="435" y="330" width="100" height="60" as="geometry" />
        </mxCell>
        <mxCell id="pTCcpfSf7AeQRIHkig0U-20" style="edgeStyle=orthogonalEdgeStyle;rounded=0;orthogonalLoop=1;jettySize=auto;html=1;exitX=1;exitY=0.5;exitDx=0;exitDy=0;exitPerimeter=0;entryX=0;entryY=0.25;entryDx=0;entryDy=0;entryPerimeter=0;endArrow=none;endFill=0;" parent="1" source="pTCcpfSf7AeQRIHkig0U-17" target="pTCcpfSf7AeQRIHkig0U-19" edge="1">
          <mxGeometry relative="1" as="geometry" />
        </mxCell>
        <mxCell id="pTCcpfSf7AeQRIHkig0U-21" style="edgeStyle=orthogonalEdgeStyle;rounded=0;orthogonalLoop=1;jettySize=auto;html=1;exitX=1;exitY=0.5;exitDx=0;exitDy=0;exitPerimeter=0;entryX=0;entryY=0.75;entryDx=0;entryDy=0;entryPerimeter=0;endArrow=none;endFill=0;" parent="1" source="pTCcpfSf7AeQRIHkig0U-18" target="pTCcpfSf7AeQRIHkig0U-19" edge="1">
          <mxGeometry relative="1" as="geometry" />
        </mxCell>
        <mxCell id="pTCcpfSf7AeQRIHkig0U-51" style="edgeStyle=orthogonalEdgeStyle;rounded=0;orthogonalLoop=1;jettySize=auto;html=1;exitX=0;exitY=0.25;exitDx=0;exitDy=0;exitPerimeter=0;endArrow=none;endFill=0;endSize=6;" parent="1" source="pTCcpfSf7AeQRIHkig0U-53" edge="1">
          <mxGeometry relative="1" as="geometry">
            <mxPoint x="178.49" y="475" as="targetPoint" />
          </mxGeometry>
        </mxCell>
        <mxCell id="pTCcpfSf7AeQRIHkig0U-52" style="edgeStyle=orthogonalEdgeStyle;rounded=0;orthogonalLoop=1;jettySize=auto;html=1;exitX=0;exitY=0.75;exitDx=0;exitDy=0;exitPerimeter=0;endArrow=none;endFill=0;entryX=1;entryY=0.5;entryDx=0;entryDy=0;entryPerimeter=0;" parent="1" source="pTCcpfSf7AeQRIHkig0U-53" target="pTCcpfSf7AeQRIHkig0U-61" edge="1">
          <mxGeometry relative="1" as="geometry">
            <mxPoint x="330.49" y="505.1111111111111" as="targetPoint" />
          </mxGeometry>
        </mxCell>
        <mxCell id="pTCcpfSf7AeQRIHkig0U-53" value="" style="verticalLabelPosition=bottom;shadow=0;dashed=0;align=center;html=1;verticalAlign=top;shape=mxgraph.electrical.logic_gates.logic_gate;operation=and;negating=1;negSize=0.15;" parent="1" vertex="1">
          <mxGeometry x="360.49" y="460" width="100" height="60" as="geometry" />
        </mxCell>
        <mxCell id="pTCcpfSf7AeQRIHkig0U-54" style="edgeStyle=orthogonalEdgeStyle;rounded=0;orthogonalLoop=1;jettySize=auto;html=1;exitX=0;exitY=0.25;exitDx=0;exitDy=0;exitPerimeter=0;endArrow=oval;endFill=1;entryX=1;entryY=0.5;entryDx=0;entryDy=0;entryPerimeter=0;" parent="1" source="pTCcpfSf7AeQRIHkig0U-56" target="pTCcpfSf7AeQRIHkig0U-61" edge="1">
          <mxGeometry relative="1" as="geometry">
            <mxPoint x="330.49" y="555.1111111111111" as="targetPoint" />
          </mxGeometry>
        </mxCell>
        <mxCell id="pTCcpfSf7AeQRIHkig0U-55" style="edgeStyle=orthogonalEdgeStyle;rounded=0;orthogonalLoop=1;jettySize=auto;html=1;exitX=0;exitY=0.75;exitDx=0;exitDy=0;exitPerimeter=0;endArrow=none;endFill=0;" parent="1" source="pTCcpfSf7AeQRIHkig0U-56" edge="1">
          <mxGeometry relative="1" as="geometry">
            <mxPoint x="178.49" y="585" as="targetPoint" />
          </mxGeometry>
        </mxCell>
        <mxCell id="pTCcpfSf7AeQRIHkig0U-56" value="" style="verticalLabelPosition=bottom;shadow=0;dashed=0;align=center;html=1;verticalAlign=top;shape=mxgraph.electrical.logic_gates.logic_gate;operation=and;negating=1;negSize=0.15;" parent="1" vertex="1">
          <mxGeometry x="360.49" y="540" width="100" height="60" as="geometry" />
        </mxCell>
        <mxCell id="pTCcpfSf7AeQRIHkig0U-57" style="edgeStyle=orthogonalEdgeStyle;rounded=0;orthogonalLoop=1;jettySize=auto;html=1;exitX=1;exitY=0.5;exitDx=0;exitDy=0;exitPerimeter=0;endArrow=none;endFill=0;" parent="1" source="pTCcpfSf7AeQRIHkig0U-58" edge="1">
          <mxGeometry relative="1" as="geometry">
            <mxPoint x="630.49" y="530" as="targetPoint" />
          </mxGeometry>
        </mxCell>
        <mxCell id="pTCcpfSf7AeQRIHkig0U-58" value="" style="verticalLabelPosition=bottom;shadow=0;dashed=0;align=center;html=1;verticalAlign=top;shape=mxgraph.electrical.logic_gates.logic_gate;operation=and;negating=1;negSize=0.15;" parent="1" vertex="1">
          <mxGeometry x="500.49" y="500" width="100" height="60" as="geometry" />
        </mxCell>
        <mxCell id="pTCcpfSf7AeQRIHkig0U-59" style="edgeStyle=orthogonalEdgeStyle;rounded=0;orthogonalLoop=1;jettySize=auto;html=1;exitX=1;exitY=0.5;exitDx=0;exitDy=0;exitPerimeter=0;entryX=0;entryY=0.25;entryDx=0;entryDy=0;entryPerimeter=0;endArrow=none;endFill=0;" parent="1" source="pTCcpfSf7AeQRIHkig0U-53" target="pTCcpfSf7AeQRIHkig0U-58" edge="1">
          <mxGeometry relative="1" as="geometry" />
        </mxCell>
        <mxCell id="pTCcpfSf7AeQRIHkig0U-60" style="edgeStyle=orthogonalEdgeStyle;rounded=0;orthogonalLoop=1;jettySize=auto;html=1;exitX=1;exitY=0.5;exitDx=0;exitDy=0;exitPerimeter=0;entryX=0;entryY=0.75;entryDx=0;entryDy=0;entryPerimeter=0;endArrow=none;endFill=0;" parent="1" source="pTCcpfSf7AeQRIHkig0U-56" target="pTCcpfSf7AeQRIHkig0U-58" edge="1">
          <mxGeometry relative="1" as="geometry" />
        </mxCell>
        <mxCell id="pTCcpfSf7AeQRIHkig0U-62" style="edgeStyle=orthogonalEdgeStyle;shape=connector;rounded=0;orthogonalLoop=1;jettySize=auto;html=1;exitX=1;exitY=0.5;exitDx=0;exitDy=0;exitPerimeter=0;strokeColor=default;align=center;verticalAlign=middle;fontFamily=Helvetica;fontSize=11;fontColor=default;labelBackgroundColor=default;endArrow=none;endFill=0;" parent="1" source="pTCcpfSf7AeQRIHkig0U-61" edge="1">
          <mxGeometry relative="1" as="geometry">
            <mxPoint x="330.58090909090913" y="530" as="targetPoint" />
          </mxGeometry>
        </mxCell>
        <mxCell id="pTCcpfSf7AeQRIHkig0U-63" style="edgeStyle=orthogonalEdgeStyle;shape=connector;rounded=0;orthogonalLoop=1;jettySize=auto;html=1;exitX=0;exitY=0.25;exitDx=0;exitDy=0;exitPerimeter=0;strokeColor=default;align=center;verticalAlign=middle;fontFamily=Helvetica;fontSize=11;fontColor=default;labelBackgroundColor=default;endArrow=oval;endFill=1;" parent="1" source="pTCcpfSf7AeQRIHkig0U-61" edge="1">
          <mxGeometry relative="1" as="geometry">
            <mxPoint x="210.49" y="475" as="targetPoint" />
          </mxGeometry>
        </mxCell>
        <mxCell id="pTCcpfSf7AeQRIHkig0U-64" style="edgeStyle=orthogonalEdgeStyle;shape=connector;rounded=0;orthogonalLoop=1;jettySize=auto;html=1;exitX=0;exitY=0.75;exitDx=0;exitDy=0;exitPerimeter=0;strokeColor=default;align=center;verticalAlign=middle;fontFamily=Helvetica;fontSize=11;fontColor=default;labelBackgroundColor=default;endArrow=oval;endFill=1;" parent="1" source="pTCcpfSf7AeQRIHkig0U-61" edge="1">
          <mxGeometry relative="1" as="geometry">
            <mxPoint x="210.49" y="585" as="targetPoint" />
          </mxGeometry>
        </mxCell>
        <mxCell id="pTCcpfSf7AeQRIHkig0U-61" value="" style="verticalLabelPosition=bottom;shadow=0;dashed=0;align=center;html=1;verticalAlign=top;shape=mxgraph.electrical.logic_gates.logic_gate;operation=and;negating=1;negSize=0.15;" parent="1" vertex="1">
          <mxGeometry x="230.49" y="500" width="100" height="60" as="geometry" />
        </mxCell>
        <mxCell id="pTCcpfSf7AeQRIHkig0U-67" value="" style="verticalLabelPosition=bottom;shadow=0;dashed=0;align=center;html=1;verticalAlign=top;shape=mxgraph.electrical.logic_gates.logic_gate;operation=and;negating=1;negSize=0.15;" parent="1" vertex="1">
          <mxGeometry x="216.98000000000002" y="780" width="100" height="60" as="geometry" />
        </mxCell>
        <mxCell id="pTCcpfSf7AeQRIHkig0U-70" value="" style="verticalLabelPosition=bottom;shadow=0;dashed=0;align=center;html=1;verticalAlign=top;shape=mxgraph.electrical.logic_gates.logic_gate;operation=and;negating=1;negSize=0.15;" parent="1" vertex="1">
          <mxGeometry x="216.98000000000002" y="860" width="100" height="60" as="geometry" />
        </mxCell>
        <mxCell id="pTCcpfSf7AeQRIHkig0U-71" style="edgeStyle=orthogonalEdgeStyle;rounded=0;orthogonalLoop=1;jettySize=auto;html=1;exitX=1;exitY=0.5;exitDx=0;exitDy=0;exitPerimeter=0;endArrow=oval;endFill=1;" parent="1" source="pTCcpfSf7AeQRIHkig0U-72" edge="1">
          <mxGeometry relative="1" as="geometry">
            <mxPoint x="486.98" y="850" as="targetPoint" />
          </mxGeometry>
        </mxCell>
        <mxCell id="pTCcpfSf7AeQRIHkig0U-72" value="" style="verticalLabelPosition=bottom;shadow=0;dashed=0;align=center;html=1;verticalAlign=top;shape=mxgraph.electrical.logic_gates.logic_gate;operation=and;negating=1;negSize=0.15;" parent="1" vertex="1">
          <mxGeometry x="356.98" y="820" width="100" height="60" as="geometry" />
        </mxCell>
        <mxCell id="pTCcpfSf7AeQRIHkig0U-73" style="edgeStyle=orthogonalEdgeStyle;rounded=0;orthogonalLoop=1;jettySize=auto;html=1;exitX=1;exitY=0.5;exitDx=0;exitDy=0;exitPerimeter=0;entryX=0;entryY=0.25;entryDx=0;entryDy=0;entryPerimeter=0;endArrow=none;endFill=0;" parent="1" source="pTCcpfSf7AeQRIHkig0U-67" target="pTCcpfSf7AeQRIHkig0U-72" edge="1">
          <mxGeometry relative="1" as="geometry" />
        </mxCell>
        <mxCell id="pTCcpfSf7AeQRIHkig0U-74" style="edgeStyle=orthogonalEdgeStyle;rounded=0;orthogonalLoop=1;jettySize=auto;html=1;exitX=1;exitY=0.5;exitDx=0;exitDy=0;exitPerimeter=0;entryX=0;entryY=0.75;entryDx=0;entryDy=0;entryPerimeter=0;endArrow=none;endFill=0;" parent="1" source="pTCcpfSf7AeQRIHkig0U-70" target="pTCcpfSf7AeQRIHkig0U-72" edge="1">
          <mxGeometry relative="1" as="geometry" />
        </mxCell>
        <mxCell id="pTCcpfSf7AeQRIHkig0U-75" style="edgeStyle=orthogonalEdgeStyle;shape=connector;rounded=0;orthogonalLoop=1;jettySize=auto;html=1;exitX=0;exitY=0.25;exitDx=0;exitDy=0;exitPerimeter=0;entryX=0;entryY=0.75;entryDx=0;entryDy=0;entryPerimeter=0;strokeColor=default;align=center;verticalAlign=middle;fontFamily=Helvetica;fontSize=11;fontColor=default;labelBackgroundColor=default;endArrow=none;endFill=0;" parent="1" source="pTCcpfSf7AeQRIHkig0U-67" target="pTCcpfSf7AeQRIHkig0U-67" edge="1">
          <mxGeometry relative="1" as="geometry" />
        </mxCell>
        <mxCell id="pTCcpfSf7AeQRIHkig0U-76" style="edgeStyle=orthogonalEdgeStyle;shape=connector;rounded=0;orthogonalLoop=1;jettySize=auto;html=1;exitX=0;exitY=0.25;exitDx=0;exitDy=0;exitPerimeter=0;entryX=0;entryY=0.75;entryDx=0;entryDy=0;entryPerimeter=0;strokeColor=default;align=center;verticalAlign=middle;fontFamily=Helvetica;fontSize=11;fontColor=default;labelBackgroundColor=default;endArrow=none;endFill=0;" parent="1" source="pTCcpfSf7AeQRIHkig0U-70" target="pTCcpfSf7AeQRIHkig0U-70" edge="1">
          <mxGeometry relative="1" as="geometry" />
        </mxCell>
        <mxCell id="pTCcpfSf7AeQRIHkig0U-80" value="" style="endArrow=oval;html=1;rounded=0;strokeColor=default;align=center;verticalAlign=middle;fontFamily=Helvetica;fontSize=11;fontColor=default;labelBackgroundColor=default;edgeStyle=orthogonalEdgeStyle;endFill=1;" parent="1" edge="1">
          <mxGeometry width="50" height="50" relative="1" as="geometry">
            <mxPoint x="166.49" y="810" as="sourcePoint" />
            <mxPoint x="216.98000000000002" y="810" as="targetPoint" />
          </mxGeometry>
        </mxCell>
        <mxCell id="pTCcpfSf7AeQRIHkig0U-97" style="edgeStyle=orthogonalEdgeStyle;shape=connector;rounded=0;orthogonalLoop=1;jettySize=auto;html=1;exitX=1;exitY=0.5;exitDx=0;exitDy=0;exitPerimeter=0;strokeColor=default;align=center;verticalAlign=middle;fontFamily=Helvetica;fontSize=11;fontColor=default;labelBackgroundColor=default;endArrow=none;endFill=0;" parent="1" source="pTCcpfSf7AeQRIHkig0U-95" edge="1">
          <mxGeometry relative="1" as="geometry">
            <mxPoint x="616.98" y="849.8888888888889" as="targetPoint" />
          </mxGeometry>
        </mxCell>
        <mxCell id="pTCcpfSf7AeQRIHkig0U-95" value="" style="verticalLabelPosition=bottom;shadow=0;dashed=0;align=center;html=1;verticalAlign=top;shape=mxgraph.electrical.logic_gates.logic_gate;operation=and;negating=1;negSize=0.15;fontFamily=Helvetica;fontSize=11;fontColor=default;labelBackgroundColor=default;" parent="1" vertex="1">
          <mxGeometry x="486.98" y="820" width="100" height="60" as="geometry" />
        </mxCell>
        <mxCell id="pTCcpfSf7AeQRIHkig0U-96" style="edgeStyle=orthogonalEdgeStyle;shape=connector;rounded=0;orthogonalLoop=1;jettySize=auto;html=1;exitX=0;exitY=0.25;exitDx=0;exitDy=0;exitPerimeter=0;entryX=0;entryY=0.75;entryDx=0;entryDy=0;entryPerimeter=0;strokeColor=default;align=center;verticalAlign=middle;fontFamily=Helvetica;fontSize=11;fontColor=default;labelBackgroundColor=default;endArrow=none;endFill=0;" parent="1" source="pTCcpfSf7AeQRIHkig0U-95" target="pTCcpfSf7AeQRIHkig0U-95" edge="1">
          <mxGeometry relative="1" as="geometry" />
        </mxCell>
        <mxCell id="pTCcpfSf7AeQRIHkig0U-114" value="" style="endArrow=oval;html=1;rounded=0;strokeColor=default;align=center;verticalAlign=middle;fontFamily=Helvetica;fontSize=11;fontColor=default;labelBackgroundColor=default;edgeStyle=orthogonalEdgeStyle;endFill=1;" parent="1" edge="1">
          <mxGeometry width="50" height="50" relative="1" as="geometry">
            <mxPoint x="166.48000000000002" y="890" as="sourcePoint" />
            <mxPoint x="216.49" y="890" as="targetPoint" />
          </mxGeometry>
        </mxCell>
        <mxCell id="pTCcpfSf7AeQRIHkig0U-115" style="edgeStyle=orthogonalEdgeStyle;rounded=0;orthogonalLoop=1;jettySize=auto;html=1;exitX=0;exitY=0.25;exitDx=0;exitDy=0;exitPerimeter=0;endArrow=none;endFill=0;endSize=6;" parent="1" source="pTCcpfSf7AeQRIHkig0U-117" edge="1">
          <mxGeometry relative="1" as="geometry">
            <mxPoint x="84.49000000000001" y="995" as="targetPoint" />
          </mxGeometry>
        </mxCell>
        <mxCell id="pTCcpfSf7AeQRIHkig0U-116" style="edgeStyle=orthogonalEdgeStyle;rounded=0;orthogonalLoop=1;jettySize=auto;html=1;exitX=0;exitY=0.75;exitDx=0;exitDy=0;exitPerimeter=0;endArrow=none;endFill=0;entryX=1;entryY=0.5;entryDx=0;entryDy=0;entryPerimeter=0;" parent="1" source="pTCcpfSf7AeQRIHkig0U-117" target="pTCcpfSf7AeQRIHkig0U-128" edge="1">
          <mxGeometry relative="1" as="geometry">
            <mxPoint x="236.48999999999998" y="1025.111111111111" as="targetPoint" />
          </mxGeometry>
        </mxCell>
        <mxCell id="pTCcpfSf7AeQRIHkig0U-117" value="" style="verticalLabelPosition=bottom;shadow=0;dashed=0;align=center;html=1;verticalAlign=top;shape=mxgraph.electrical.logic_gates.logic_gate;operation=and;negating=1;negSize=0.15;" parent="1" vertex="1">
          <mxGeometry x="266.49" y="980" width="100" height="60" as="geometry" />
        </mxCell>
        <mxCell id="pTCcpfSf7AeQRIHkig0U-118" style="edgeStyle=orthogonalEdgeStyle;rounded=0;orthogonalLoop=1;jettySize=auto;html=1;exitX=0;exitY=0.25;exitDx=0;exitDy=0;exitPerimeter=0;endArrow=oval;endFill=1;entryX=1;entryY=0.5;entryDx=0;entryDy=0;entryPerimeter=0;" parent="1" source="pTCcpfSf7AeQRIHkig0U-120" target="pTCcpfSf7AeQRIHkig0U-128" edge="1">
          <mxGeometry relative="1" as="geometry">
            <mxPoint x="236.48999999999998" y="1075.111111111111" as="targetPoint" />
          </mxGeometry>
        </mxCell>
        <mxCell id="pTCcpfSf7AeQRIHkig0U-119" style="edgeStyle=orthogonalEdgeStyle;rounded=0;orthogonalLoop=1;jettySize=auto;html=1;exitX=0;exitY=0.75;exitDx=0;exitDy=0;exitPerimeter=0;endArrow=none;endFill=0;" parent="1" source="pTCcpfSf7AeQRIHkig0U-120" edge="1">
          <mxGeometry relative="1" as="geometry">
            <mxPoint x="84.49000000000001" y="1105" as="targetPoint" />
          </mxGeometry>
        </mxCell>
        <mxCell id="pTCcpfSf7AeQRIHkig0U-120" value="" style="verticalLabelPosition=bottom;shadow=0;dashed=0;align=center;html=1;verticalAlign=top;shape=mxgraph.electrical.logic_gates.logic_gate;operation=and;negating=1;negSize=0.15;" parent="1" vertex="1">
          <mxGeometry x="266.49" y="1060" width="100" height="60" as="geometry" />
        </mxCell>
        <mxCell id="pTCcpfSf7AeQRIHkig0U-121" style="edgeStyle=orthogonalEdgeStyle;rounded=0;orthogonalLoop=1;jettySize=auto;html=1;exitX=1;exitY=0.5;exitDx=0;exitDy=0;exitPerimeter=0;endArrow=oval;endFill=1;" parent="1" source="pTCcpfSf7AeQRIHkig0U-122" edge="1">
          <mxGeometry relative="1" as="geometry">
            <mxPoint x="536.49" y="1050" as="targetPoint" />
          </mxGeometry>
        </mxCell>
        <mxCell id="pTCcpfSf7AeQRIHkig0U-122" value="" style="verticalLabelPosition=bottom;shadow=0;dashed=0;align=center;html=1;verticalAlign=top;shape=mxgraph.electrical.logic_gates.logic_gate;operation=and;negating=1;negSize=0.15;" parent="1" vertex="1">
          <mxGeometry x="406.49" y="1020" width="100" height="60" as="geometry" />
        </mxCell>
        <mxCell id="pTCcpfSf7AeQRIHkig0U-123" style="edgeStyle=orthogonalEdgeStyle;rounded=0;orthogonalLoop=1;jettySize=auto;html=1;exitX=1;exitY=0.5;exitDx=0;exitDy=0;exitPerimeter=0;entryX=0;entryY=0.25;entryDx=0;entryDy=0;entryPerimeter=0;endArrow=none;endFill=0;" parent="1" source="pTCcpfSf7AeQRIHkig0U-117" target="pTCcpfSf7AeQRIHkig0U-122" edge="1">
          <mxGeometry relative="1" as="geometry" />
        </mxCell>
        <mxCell id="pTCcpfSf7AeQRIHkig0U-124" style="edgeStyle=orthogonalEdgeStyle;rounded=0;orthogonalLoop=1;jettySize=auto;html=1;exitX=1;exitY=0.5;exitDx=0;exitDy=0;exitPerimeter=0;entryX=0;entryY=0.75;entryDx=0;entryDy=0;entryPerimeter=0;endArrow=none;endFill=0;" parent="1" source="pTCcpfSf7AeQRIHkig0U-120" target="pTCcpfSf7AeQRIHkig0U-122" edge="1">
          <mxGeometry relative="1" as="geometry" />
        </mxCell>
        <mxCell id="pTCcpfSf7AeQRIHkig0U-125" style="edgeStyle=orthogonalEdgeStyle;shape=connector;rounded=0;orthogonalLoop=1;jettySize=auto;html=1;exitX=1;exitY=0.5;exitDx=0;exitDy=0;exitPerimeter=0;strokeColor=default;align=center;verticalAlign=middle;fontFamily=Helvetica;fontSize=11;fontColor=default;labelBackgroundColor=default;endArrow=none;endFill=0;" parent="1" source="pTCcpfSf7AeQRIHkig0U-128" edge="1">
          <mxGeometry relative="1" as="geometry">
            <mxPoint x="236.5809090909091" y="1050" as="targetPoint" />
          </mxGeometry>
        </mxCell>
        <mxCell id="pTCcpfSf7AeQRIHkig0U-126" style="edgeStyle=orthogonalEdgeStyle;shape=connector;rounded=0;orthogonalLoop=1;jettySize=auto;html=1;exitX=0;exitY=0.25;exitDx=0;exitDy=0;exitPerimeter=0;strokeColor=default;align=center;verticalAlign=middle;fontFamily=Helvetica;fontSize=11;fontColor=default;labelBackgroundColor=default;endArrow=oval;endFill=1;" parent="1" source="pTCcpfSf7AeQRIHkig0U-128" edge="1">
          <mxGeometry relative="1" as="geometry">
            <mxPoint x="116.49000000000001" y="995" as="targetPoint" />
          </mxGeometry>
        </mxCell>
        <mxCell id="pTCcpfSf7AeQRIHkig0U-127" style="edgeStyle=orthogonalEdgeStyle;shape=connector;rounded=0;orthogonalLoop=1;jettySize=auto;html=1;exitX=0;exitY=0.75;exitDx=0;exitDy=0;exitPerimeter=0;strokeColor=default;align=center;verticalAlign=middle;fontFamily=Helvetica;fontSize=11;fontColor=default;labelBackgroundColor=default;endArrow=oval;endFill=1;" parent="1" source="pTCcpfSf7AeQRIHkig0U-128" edge="1">
          <mxGeometry relative="1" as="geometry">
            <mxPoint x="116.49000000000001" y="1105" as="targetPoint" />
          </mxGeometry>
        </mxCell>
        <mxCell id="pTCcpfSf7AeQRIHkig0U-128" value="" style="verticalLabelPosition=bottom;shadow=0;dashed=0;align=center;html=1;verticalAlign=top;shape=mxgraph.electrical.logic_gates.logic_gate;operation=and;negating=1;negSize=0.15;" parent="1" vertex="1">
          <mxGeometry x="136.48999999999998" y="1020" width="100" height="60" as="geometry" />
        </mxCell>
        <mxCell id="pTCcpfSf7AeQRIHkig0U-132" style="edgeStyle=orthogonalEdgeStyle;shape=connector;rounded=0;orthogonalLoop=1;jettySize=auto;html=1;exitX=1;exitY=0.5;exitDx=0;exitDy=0;exitPerimeter=0;strokeColor=default;align=center;verticalAlign=middle;fontFamily=Helvetica;fontSize=11;fontColor=default;labelBackgroundColor=default;endArrow=none;endFill=0;" parent="1" source="pTCcpfSf7AeQRIHkig0U-129" edge="1">
          <mxGeometry relative="1" as="geometry">
            <mxPoint x="666" y="1049.7567567567567" as="targetPoint" />
          </mxGeometry>
        </mxCell>
        <mxCell id="pTCcpfSf7AeQRIHkig0U-129" value="" style="verticalLabelPosition=bottom;shadow=0;dashed=0;align=center;html=1;verticalAlign=top;shape=mxgraph.electrical.logic_gates.logic_gate;operation=and;negating=1;negSize=0.15;fontFamily=Helvetica;fontSize=11;fontColor=default;labelBackgroundColor=default;" parent="1" vertex="1">
          <mxGeometry x="536.49" y="1020" width="100" height="60" as="geometry" />
        </mxCell>
        <mxCell id="pTCcpfSf7AeQRIHkig0U-131" style="edgeStyle=orthogonalEdgeStyle;shape=connector;rounded=0;orthogonalLoop=1;jettySize=auto;html=1;exitX=0;exitY=0.25;exitDx=0;exitDy=0;exitPerimeter=0;entryX=0;entryY=0.75;entryDx=0;entryDy=0;entryPerimeter=0;strokeColor=default;align=center;verticalAlign=middle;fontFamily=Helvetica;fontSize=11;fontColor=default;labelBackgroundColor=default;endArrow=none;endFill=0;" parent="1" source="pTCcpfSf7AeQRIHkig0U-129" target="pTCcpfSf7AeQRIHkig0U-129" edge="1">
          <mxGeometry relative="1" as="geometry" />
        </mxCell>
        <mxCell id="pTCcpfSf7AeQRIHkig0U-136" value="&lt;font style=&quot;font-size: 14px;&quot;&gt;A&lt;/font&gt;" style="text;html=1;align=center;verticalAlign=middle;resizable=0;points=[];autosize=1;strokeColor=none;fillColor=none;fontFamily=Helvetica;fontSize=11;fontColor=default;labelBackgroundColor=default;" parent="1" vertex="1">
          <mxGeometry x="286" y="65" width="30" height="30" as="geometry" />
        </mxCell>
        <mxCell id="pTCcpfSf7AeQRIHkig0U-139" value="&lt;span style=&quot;font-size: 14px;&quot;&gt;NOT A&lt;/span&gt;" style="text;html=1;align=center;verticalAlign=middle;resizable=0;points=[];autosize=1;strokeColor=none;fillColor=none;fontFamily=Helvetica;fontSize=11;fontColor=default;labelBackgroundColor=default;" parent="1" vertex="1">
          <mxGeometry x="470.51" y="65" width="70" height="30" as="geometry" />
        </mxCell>
        <mxCell id="pTCcpfSf7AeQRIHkig0U-140" value="&lt;font style=&quot;font-size: 14px;&quot;&gt;A&lt;/font&gt;" style="text;html=1;align=center;verticalAlign=middle;resizable=0;points=[];autosize=1;strokeColor=none;fillColor=none;fontFamily=Helvetica;fontSize=11;fontColor=default;labelBackgroundColor=default;" parent="1" vertex="1">
          <mxGeometry x="230" y="170" width="30" height="30" as="geometry" />
        </mxCell>
        <mxCell id="pTCcpfSf7AeQRIHkig0U-141" value="&lt;span style=&quot;font-size: 14px;&quot;&gt;B&lt;/span&gt;" style="text;html=1;align=center;verticalAlign=middle;resizable=0;points=[];autosize=1;strokeColor=none;fillColor=none;fontFamily=Helvetica;fontSize=11;fontColor=default;labelBackgroundColor=default;" parent="1" vertex="1">
          <mxGeometry x="230" y="200" width="30" height="30" as="geometry" />
        </mxCell>
        <mxCell id="pTCcpfSf7AeQRIHkig0U-142" value="&lt;span style=&quot;font-size: 14px;&quot;&gt;AND(A, B)&lt;/span&gt;" style="text;html=1;align=center;verticalAlign=middle;resizable=0;points=[];autosize=1;strokeColor=none;fillColor=none;fontFamily=Helvetica;fontSize=11;fontColor=default;labelBackgroundColor=default;" parent="1" vertex="1">
          <mxGeometry x="540" y="185" width="90" height="30" as="geometry" />
        </mxCell>
        <mxCell id="pTCcpfSf7AeQRIHkig0U-143" style="edgeStyle=orthogonalEdgeStyle;shape=connector;rounded=0;orthogonalLoop=1;jettySize=auto;html=1;exitX=0;exitY=0.25;exitDx=0;exitDy=0;exitPerimeter=0;entryX=0;entryY=0.75;entryDx=0;entryDy=0;entryPerimeter=0;strokeColor=default;align=center;verticalAlign=middle;fontFamily=Helvetica;fontSize=11;fontColor=default;labelBackgroundColor=default;endArrow=none;endFill=0;" parent="1" source="pTCcpfSf7AeQRIHkig0U-17" target="pTCcpfSf7AeQRIHkig0U-17" edge="1">
          <mxGeometry relative="1" as="geometry" />
        </mxCell>
        <mxCell id="pTCcpfSf7AeQRIHkig0U-144" style="edgeStyle=orthogonalEdgeStyle;shape=connector;rounded=0;orthogonalLoop=1;jettySize=auto;html=1;exitX=0;exitY=0.25;exitDx=0;exitDy=0;exitPerimeter=0;entryX=0;entryY=0.75;entryDx=0;entryDy=0;entryPerimeter=0;strokeColor=default;align=center;verticalAlign=middle;fontFamily=Helvetica;fontSize=11;fontColor=default;labelBackgroundColor=default;endArrow=none;endFill=0;" parent="1" source="pTCcpfSf7AeQRIHkig0U-18" target="pTCcpfSf7AeQRIHkig0U-18" edge="1">
          <mxGeometry relative="1" as="geometry" />
        </mxCell>
        <mxCell id="pTCcpfSf7AeQRIHkig0U-145" value="" style="endArrow=oval;html=1;rounded=0;strokeColor=default;align=center;verticalAlign=middle;fontFamily=Helvetica;fontSize=11;fontColor=default;labelBackgroundColor=default;edgeStyle=orthogonalEdgeStyle;endFill=1;" parent="1" edge="1">
          <mxGeometry width="50" height="50" relative="1" as="geometry">
            <mxPoint x="244.5" y="320" as="sourcePoint" />
            <mxPoint x="295" y="320" as="targetPoint" />
          </mxGeometry>
        </mxCell>
        <mxCell id="pTCcpfSf7AeQRIHkig0U-146" value="" style="endArrow=oval;html=1;rounded=0;strokeColor=default;align=center;verticalAlign=middle;fontFamily=Helvetica;fontSize=11;fontColor=default;labelBackgroundColor=default;edgeStyle=orthogonalEdgeStyle;endFill=1;" parent="1" edge="1">
          <mxGeometry width="50" height="50" relative="1" as="geometry">
            <mxPoint x="244.5" y="400" as="sourcePoint" />
            <mxPoint x="295" y="400" as="targetPoint" />
          </mxGeometry>
        </mxCell>
        <mxCell id="pTCcpfSf7AeQRIHkig0U-147" value="&lt;font style=&quot;font-size: 14px;&quot;&gt;A&lt;/font&gt;" style="text;html=1;align=center;verticalAlign=middle;resizable=0;points=[];autosize=1;strokeColor=none;fillColor=none;fontFamily=Helvetica;fontSize=11;fontColor=default;labelBackgroundColor=default;" parent="1" vertex="1">
          <mxGeometry x="215.49" y="305" width="30" height="30" as="geometry" />
        </mxCell>
        <mxCell id="pTCcpfSf7AeQRIHkig0U-148" value="&lt;span style=&quot;font-size: 14px;&quot;&gt;B&lt;/span&gt;" style="text;html=1;align=center;verticalAlign=middle;resizable=0;points=[];autosize=1;strokeColor=none;fillColor=none;fontFamily=Helvetica;fontSize=11;fontColor=default;labelBackgroundColor=default;" parent="1" vertex="1">
          <mxGeometry x="215.49" y="385" width="30" height="30" as="geometry" />
        </mxCell>
        <mxCell id="pTCcpfSf7AeQRIHkig0U-149" value="&lt;span style=&quot;font-size: 14px;&quot;&gt;OR(A, B)&lt;/span&gt;" style="text;html=1;align=center;verticalAlign=middle;resizable=0;points=[];autosize=1;strokeColor=none;fillColor=none;fontFamily=Helvetica;fontSize=11;fontColor=default;labelBackgroundColor=default;" parent="1" vertex="1">
          <mxGeometry x="565" y="345" width="80" height="30" as="geometry" />
        </mxCell>
        <mxCell id="pTCcpfSf7AeQRIHkig0U-150" value="&lt;font style=&quot;font-size: 14px;&quot;&gt;A&lt;/font&gt;" style="text;html=1;align=center;verticalAlign=middle;resizable=0;points=[];autosize=1;strokeColor=none;fillColor=none;fontFamily=Helvetica;fontSize=11;fontColor=default;labelBackgroundColor=default;" parent="1" vertex="1">
          <mxGeometry x="150.49" y="460" width="30" height="30" as="geometry" />
        </mxCell>
        <mxCell id="pTCcpfSf7AeQRIHkig0U-151" value="&lt;span style=&quot;font-size: 14px;&quot;&gt;B&lt;/span&gt;" style="text;html=1;align=center;verticalAlign=middle;resizable=0;points=[];autosize=1;strokeColor=none;fillColor=none;fontFamily=Helvetica;fontSize=11;fontColor=default;labelBackgroundColor=default;" parent="1" vertex="1">
          <mxGeometry x="150.49" y="569" width="30" height="30" as="geometry" />
        </mxCell>
        <mxCell id="pTCcpfSf7AeQRIHkig0U-152" value="&lt;span style=&quot;font-size: 14px;&quot;&gt;XOR(A, B)&lt;/span&gt;" style="text;html=1;align=center;verticalAlign=middle;resizable=0;points=[];autosize=1;strokeColor=none;fillColor=none;fontFamily=Helvetica;fontSize=11;fontColor=default;labelBackgroundColor=default;" parent="1" vertex="1">
          <mxGeometry x="630.49" y="515" width="90" height="30" as="geometry" />
        </mxCell>
        <mxCell id="pTCcpfSf7AeQRIHkig0U-153" value="&lt;span style=&quot;font-size: 14px;&quot;&gt;NOR(A, B)&lt;/span&gt;" style="text;html=1;align=center;verticalAlign=middle;resizable=0;points=[];autosize=1;strokeColor=none;fillColor=none;fontFamily=Helvetica;fontSize=11;fontColor=default;labelBackgroundColor=default;" parent="1" vertex="1">
          <mxGeometry x="616.49" y="835" width="90" height="30" as="geometry" />
        </mxCell>
        <mxCell id="pTCcpfSf7AeQRIHkig0U-154" value="&lt;span style=&quot;font-size: 14px;&quot;&gt;XNOR(A, B)&lt;/span&gt;" style="text;html=1;align=center;verticalAlign=middle;resizable=0;points=[];autosize=1;strokeColor=none;fillColor=none;fontFamily=Helvetica;fontSize=11;fontColor=default;labelBackgroundColor=default;" parent="1" vertex="1">
          <mxGeometry x="670.49" y="1035" width="100" height="30" as="geometry" />
        </mxCell>
        <mxCell id="pTCcpfSf7AeQRIHkig0U-155" value="&lt;font style=&quot;font-size: 14px;&quot;&gt;A&lt;/font&gt;" style="text;html=1;align=center;verticalAlign=middle;resizable=0;points=[];autosize=1;strokeColor=none;fillColor=none;fontFamily=Helvetica;fontSize=11;fontColor=default;labelBackgroundColor=default;" parent="1" vertex="1">
          <mxGeometry x="136.49" y="795" width="30" height="30" as="geometry" />
        </mxCell>
        <mxCell id="pTCcpfSf7AeQRIHkig0U-157" value="&lt;font style=&quot;font-size: 14px;&quot;&gt;A&lt;/font&gt;" style="text;html=1;align=center;verticalAlign=middle;resizable=0;points=[];autosize=1;strokeColor=none;fillColor=none;fontFamily=Helvetica;fontSize=11;fontColor=default;labelBackgroundColor=default;" parent="1" vertex="1">
          <mxGeometry x="56.000000000000014" y="980" width="30" height="30" as="geometry" />
        </mxCell>
        <mxCell id="pTCcpfSf7AeQRIHkig0U-158" value="&lt;span style=&quot;font-size: 14px;&quot;&gt;B&lt;/span&gt;" style="text;html=1;align=center;verticalAlign=middle;resizable=0;points=[];autosize=1;strokeColor=none;fillColor=none;fontFamily=Helvetica;fontSize=11;fontColor=default;labelBackgroundColor=default;" parent="1" vertex="1">
          <mxGeometry x="136.49" y="875" width="30" height="30" as="geometry" />
        </mxCell>
        <mxCell id="pTCcpfSf7AeQRIHkig0U-159" value="&lt;span style=&quot;font-size: 14px;&quot;&gt;B&lt;/span&gt;" style="text;html=1;align=center;verticalAlign=middle;resizable=0;points=[];autosize=1;strokeColor=none;fillColor=none;fontFamily=Helvetica;fontSize=11;fontColor=default;labelBackgroundColor=default;" parent="1" vertex="1">
          <mxGeometry x="56.000000000000014" y="1090" width="30" height="30" as="geometry" />
        </mxCell>
        <mxCell id="pTCcpfSf7AeQRIHkig0U-161" style="edgeStyle=orthogonalEdgeStyle;shape=connector;rounded=0;orthogonalLoop=1;jettySize=auto;html=1;exitX=0;exitY=0.25;exitDx=0;exitDy=0;exitPerimeter=0;strokeColor=default;align=center;verticalAlign=middle;fontFamily=Helvetica;fontSize=11;fontColor=default;labelBackgroundColor=default;endArrow=none;endFill=0;" parent="1" source="pTCcpfSf7AeQRIHkig0U-160" edge="1">
          <mxGeometry relative="1" as="geometry">
            <mxPoint x="296.98" y="675.2413793103449" as="targetPoint" />
          </mxGeometry>
        </mxCell>
        <mxCell id="pTCcpfSf7AeQRIHkig0U-162" style="edgeStyle=orthogonalEdgeStyle;shape=connector;rounded=0;orthogonalLoop=1;jettySize=auto;html=1;exitX=0;exitY=0.75;exitDx=0;exitDy=0;exitPerimeter=0;strokeColor=default;align=center;verticalAlign=middle;fontFamily=Helvetica;fontSize=11;fontColor=default;labelBackgroundColor=default;endArrow=none;endFill=0;" parent="1" source="pTCcpfSf7AeQRIHkig0U-160" edge="1">
          <mxGeometry relative="1" as="geometry">
            <mxPoint x="296.98" y="704.8965517241379" as="targetPoint" />
          </mxGeometry>
        </mxCell>
        <mxCell id="pTCcpfSf7AeQRIHkig0U-163" style="edgeStyle=orthogonalEdgeStyle;shape=connector;rounded=0;orthogonalLoop=1;jettySize=auto;html=1;exitX=1;exitY=0.5;exitDx=0;exitDy=0;exitPerimeter=0;strokeColor=default;align=center;verticalAlign=middle;fontFamily=Helvetica;fontSize=11;fontColor=default;labelBackgroundColor=default;endArrow=none;endFill=0;" parent="1" source="pTCcpfSf7AeQRIHkig0U-160" edge="1">
          <mxGeometry relative="1" as="geometry">
            <mxPoint x="486.98" y="690" as="targetPoint" />
          </mxGeometry>
        </mxCell>
        <mxCell id="pTCcpfSf7AeQRIHkig0U-160" value="" style="verticalLabelPosition=bottom;shadow=0;dashed=0;align=center;html=1;verticalAlign=top;shape=mxgraph.electrical.logic_gates.logic_gate;operation=and;negating=1;negSize=0.15;fontFamily=Helvetica;fontSize=11;fontColor=default;labelBackgroundColor=default;" parent="1" vertex="1">
          <mxGeometry x="336.98" y="660" width="100" height="60" as="geometry" />
        </mxCell>
        <mxCell id="pTCcpfSf7AeQRIHkig0U-164" value="&lt;font style=&quot;font-size: 14px;&quot;&gt;A&lt;/font&gt;" style="text;html=1;align=center;verticalAlign=middle;resizable=0;points=[];autosize=1;strokeColor=none;fillColor=none;fontFamily=Helvetica;fontSize=11;fontColor=default;labelBackgroundColor=default;" parent="1" vertex="1">
          <mxGeometry x="272.47" y="660" width="30" height="30" as="geometry" />
        </mxCell>
        <mxCell id="pTCcpfSf7AeQRIHkig0U-165" value="&lt;span style=&quot;font-size: 14px;&quot;&gt;B&lt;/span&gt;" style="text;html=1;align=center;verticalAlign=middle;resizable=0;points=[];autosize=1;strokeColor=none;fillColor=none;fontFamily=Helvetica;fontSize=11;fontColor=default;labelBackgroundColor=default;" parent="1" vertex="1">
          <mxGeometry x="272.47" y="690" width="30" height="30" as="geometry" />
        </mxCell>
        <mxCell id="pTCcpfSf7AeQRIHkig0U-166" value="&lt;span style=&quot;font-size: 14px;&quot;&gt;NAND(A, B)&lt;/span&gt;" style="text;html=1;align=center;verticalAlign=middle;resizable=0;points=[];autosize=1;strokeColor=none;fillColor=none;fontFamily=Helvetica;fontSize=11;fontColor=default;labelBackgroundColor=default;" parent="1" vertex="1">
          <mxGeometry x="486.98" y="675" width="100" height="30" as="geometry" />
        </mxCell>
      </root>
    </mxGraphModel>
  </diagram>
</mxfile>
